<?xml version="1.0" standalone="no"?><!DOCTYPE svg PUBLIC "-//W3C//DTD SVG 1.1//EN" "http://www.w3.org/Graphics/SVG/1.1/DTD/svg11.dtd"><svg t="1606791361912" class="icon" viewBox="0 0 1024 1024" version="1.1" xmlns="http://www.w3.org/2000/svg" p-id="4001" xmlns:xlink="http://www.w3.org/1999/xlink" width="200" height="200"><defs><style type="text/css">* { text-shadow: transparent 0px 0px 0px, rgba(0, 0, 0, 0.68) 0px 0px 0px !important; }
</style></defs><path d="M952 64H72C32.3 64 0 96.3 0 136v508c0 39.7 32.3 72 72 72h261l128 128c14 14 32.5 21.1 50.9 21.1s36.9-7 50.9-21.1l128-128h261c39.7 0 72-32.3 72-72V136c0.2-39.7-32.1-72-71.8-72zM222 462c-39.8 0-72-32.2-72-72s32.2-72 72-72 72 32.2 72 72-32.2 72-72 72z m290-7.7c-39.8 0-72-32.2-72-72s32.2-72 72-72 72 32.2 72 72c0 39.7-32.2 72-72 72z m290 8c-39.8 0-72-32.2-72-72s32.2-72 72-72 72 32.2 72 72c0 39.7-32.2 72-72 72z" p-id="4002"></path></svg>