<?xml version="1.0" standalone="no"?><!DOCTYPE svg PUBLIC "-//W3C//DTD SVG 1.1//EN" "http://www.w3.org/Graphics/SVG/1.1/DTD/svg11.dtd"><svg t="1606560222506" class="icon" viewBox="0 0 1024 1024" version="1.1" xmlns="http://www.w3.org/2000/svg" p-id="3256" xmlns:xlink="http://www.w3.org/1999/xlink" width="200" height="200"><defs><style type="text/css">* { text-shadow: transparent 0px 0px 0px, rgba(0, 0, 0, 0.68) 0px 0px 0px !important; }
</style></defs><path d="M866.133333 200.533333 797.866667 128 725.333333 200.533333 652.8 128l-72.533333 72.533333L512 128l-72.533333 72.533333L371.2 128 298.666667 200.533333 226.133333 128 157.866667 200.533333 85.333333 128l0 682.666667c0 46.933333 38.4 85.333333 85.333333 85.333333l682.666667 0c46.933333 0 85.333333-38.4 85.333333-85.333333l0-682.666667L866.133333 200.533333zM512 810.666667 170.666667 810.666667l0-298.666667 341.333333 0L512 810.666667zM853.333333 810.666667l-298.666667 0 0-42.666667 298.666667 0L853.333333 810.666667zM853.333333 725.333333l-298.666667 0 0-42.666667 298.666667 0L853.333333 725.333333zM853.333333 640l-298.666667 0 0-42.666667 298.666667 0L853.333333 640zM853.333333 554.666667l-298.666667 0 0-42.666667 298.666667 0L853.333333 554.666667zM853.333333 469.333333 170.666667 469.333333 170.666667 341.333333l682.666667 0L853.333333 469.333333z" p-id="3257"></path></svg>